<svg xmlns="http://www.w3.org/2000/svg" width="610" height="302" viewBox="0 0 610 302" role="img" aria-label="DECAT：双专家化学感知 Transformer；模型复现、部署与适用域分析"><style>text{font-family:'Microsoft YaHei', 'PingFang SC', sans-serif}</style>
<rect x="1" y="1" width="608" height="300" rx="24" fill="#eef7f2" stroke="#315e4c" stroke-opacity=".15" stroke-width="2" />
<g aria-label="AI × 化学" transform="translate(32.00000 51.00000) scale(0.01123047 -0.01123047)" fill="#315e4c"><title>AI × 化学</title><path d="M1417 0H1196L1038 424H393L244 0H23L613 1549H827ZM976 599 742 1243Q731 1274 718 1351H713Q702 1281 688 1243L456 599Z" transform="translate(0.00000 0)" /><path d="M400 1549V0H200V1549Z" transform="translate(1441.00000 0)" /><path d="M1234 278 1126 170 759 537 394 170 286 278 654 643 286 1010 394 1117 759 750 1127 1117 1234 1009 867 643Z" transform="translate(2649.00000 0)" /><path d="M590 465Q852 587 1080 746V1663H1252V875Q1558 1122 1796 1445L1942 1339Q1651 952 1252 662V97Q1252 -39 1396 -39H1650Q1786 -39 1808 91Q1836 227 1844 405Q1928 373 2020 347Q2004 179 1978 39Q1940 -191 1690 -191H1352Q1080 -191 1080 77V545Q893 425 686 325Q644 391 590 465ZM28 711Q376 1173 540 1693L714 1643Q619 1395 508 1176V-255H340V875Q229 695 104 537Q70 623 28 711Z" transform="translate(4774.00000 0)" /><path d="M46 435H982V547L1364 763H424V909H1598V741L1144 479V435H2004V289H1144V-13Q1144 -249 906 -249Q774 -249 596 -245Q590 -177 572 -75Q732 -91 878 -93Q982 -95 982 17V289H46ZM114 1251H1938V847H1780V1105H272V847H114ZM1380 1367Q1514 1511 1632 1677L1776 1571Q1646 1423 1498 1261ZM812 1637 942 1713Q1064 1553 1168 1387L1024 1305Q936 1461 812 1637ZM272 1577 390 1663Q512 1529 630 1373L494 1277Q382 1447 272 1577Z" transform="translate(6822.00000 0)" /></g>
<g aria-label="DECAT" transform="translate(30.00000 110.00000) scale(0.02099609 -0.02099609)" fill="#315e4c"><title>DECAT</title><path d="M179 0V1549H714Q1539 1549 1539 794Q1539 435 1308.0 217.5Q1077 0 712 0ZM509 1279V270H689Q924 270 1058.0 410.0Q1192 550 1192 789Q1192 1020 1052.0 1149.5Q912 1279 688 1279Z" transform="translate(0.00000 0)" /><path d="M1096 0H179V1549H1060V1279H509V914H1021V645H509V270H1096Z" transform="translate(1621.00000 0)" /><path d="M1284 56Q1115 -27 843 -27Q493 -27 287.5 182.5Q82 392 82 741Q82 1108 311.5 1341.5Q541 1575 904 1575Q1131 1575 1284 1516V1197Q1127 1289 928 1289Q701 1289 565.0 1144.0Q429 999 429 765Q429 537 558.0 398.0Q687 259 907 259Q1114 259 1284 359Z" transform="translate(2792.00000 0)" /><path d="M1523 0H1163L1047 355H484L370 0H12L579 1549H967ZM969 610 793 1147Q776 1198 769 1282H760Q754 1214 733 1151L556 610Z" transform="translate(4171.00000 0)" /><path d="M1248 1279H806V0H475V1279H34V1549H1248Z" transform="translate(5711.00000 0)" /></g>
<g style="color:#315e4c" transform="translate(483 27) scale(.85)" opacity=".65"><path d="M20 20 76 12 86 65 34 79 20 20 86 65M76 12 34 79" fill="none" stroke="currentColor" stroke-width="3" /><circle cx="20" cy="20" r="7" fill="currentColor" /><circle cx="76" cy="12" r="7" fill="currentColor" /><circle cx="86" cy="65" r="7" fill="currentColor" /><circle cx="34" cy="79" r="7" fill="currentColor" /></g>
<g aria-label="双专家化学感知 Transformer" transform="translate(32.00000 171.00000) scale(0.01513672 -0.01513672)" fill="#485d54"><title>双专家化学感知 Transformer</title><path d="M944 1403V1555H1886V1409Q1801 686 1520 305Q1732 59 2024 -77Q1954 -161 1894 -229Q1623 -58 1419 181Q1193 -71 808 -277Q772 -225 702 -137Q1090 51 1318 308Q1046 691 998 1403ZM80 1163 206 1241Q388 973 569 690Q691 1012 728 1399H56V1551H888V1399Q819 882 669 531Q803 320 936 99L804 -3Q692 187 586 362Q415 49 146 -209Q84 -143 22 -97Q335 197 493 514Q272 875 80 1163ZM1718 1403H1145Q1196 764 1417 437Q1655 796 1718 1403Z" transform="translate(0.00000 0)" /><path d="M526 333Q791 215 1098 70L1550 461H430V609L527 857H50V1009H587L695 1283H172V1435H755L860 1701H1042L937 1435H1884V1283H877L769 1009H2012V857H709L612 611H1778V455L1246 0Q1380 -64 1522 -133L1424 -285Q922 -21 442 199Z" transform="translate(2048.00000 0)" /><path d="M62 -67Q666 106 1024 498Q996 556 959 609Q661 301 136 135Q106 203 64 271Q579 413 865 722Q832 755 793 787Q528 599 142 479Q104 545 52 621Q529 727 816 977H312V1121H1740V977H1014Q963 923 904 873Q1061 746 1148 589Q1461 742 1704 903L1798 775Q1635 677 1451 581Q1628 197 2026 45Q1960 -31 1902 -111Q1511 89 1322 515Q1265 487 1206 458Q1320 33 1170 -161Q1098 -247 894 -247Q814 -247 642 -241Q630 -163 612 -75Q768 -93 890 -93Q1106 -105 1100 167Q1097 257 1078 340Q724 -9 134 -205Q104 -139 62 -67ZM106 1449H1010Q951 1538 872 1639L1012 1729Q1102 1619 1176 1511L1074 1449H1940V1107H1780V1301H266V1107H106Z" transform="translate(4096.00000 0)" /><path d="M590 465Q852 587 1080 746V1663H1252V875Q1558 1122 1796 1445L1942 1339Q1651 952 1252 662V97Q1252 -39 1396 -39H1650Q1786 -39 1808 91Q1836 227 1844 405Q1928 373 2020 347Q2004 179 1978 39Q1940 -191 1690 -191H1352Q1080 -191 1080 77V545Q893 425 686 325Q644 391 590 465ZM28 711Q376 1173 540 1693L714 1643Q619 1395 508 1176V-255H340V875Q229 695 104 537Q70 623 28 711Z" transform="translate(6144.00000 0)" /><path d="M46 435H982V547L1364 763H424V909H1598V741L1144 479V435H2004V289H1144V-13Q1144 -249 906 -249Q774 -249 596 -245Q590 -177 572 -75Q732 -91 878 -93Q982 -95 982 17V289H46ZM114 1251H1938V847H1780V1105H272V847H114ZM1380 1367Q1514 1511 1632 1677L1776 1571Q1646 1423 1498 1261ZM812 1637 942 1713Q1064 1553 1168 1387L1024 1305Q936 1461 812 1637ZM272 1577 390 1663Q512 1529 630 1373L494 1277Q382 1447 272 1577Z" transform="translate(8192.00000 0)" /><path d="M1130 455Q1284 557 1404 682Q1287 931 1262 1327H388V1063Q388 577 148 279Q106 363 44 431Q244 651 244 1065V1455H1255Q1249 1577 1248 1691H1396Q1396 1577 1401 1455H1984V1327H1408Q1429 1019 1513 810Q1648 988 1726 1207L1862 1139Q1746 877 1583 673Q1619 615 1662 569Q1710 519 1752 519Q1790 519 1814 583Q1844 667 1874 807Q1926 779 2022 743Q1976 565 1942 481Q1884 341 1772 341Q1680 341 1576 437Q1522 487 1477 552Q1369 440 1244 349Q1196 403 1130 455ZM524 925H1140V493H660V437H524ZM548 319H700V43Q700 -81 828 -81H1188Q1342 -81 1364 35Q1380 101 1400 249Q1468 221 1558 189Q1532 53 1506 -33Q1458 -221 1220 -221H796Q548 -221 548 25ZM462 1183H1190V1063H462ZM270 329 412 273Q310 15 190 -171Q140 -141 56 -95Q186 93 270 329ZM1004 613V805H660V613ZM1636 203 1748 283Q1876 135 2008 -53L1876 -147Q1780 11 1636 203ZM866 343 974 425Q1106 285 1210 157L1084 61Q976 217 866 343ZM1810 1557 1712 1459Q1626 1539 1524 1621L1612 1713Q1716 1637 1810 1557Z" transform="translate(10240.00000 0)" /><path d="M1080 1485H1932V-219H1774V-17H1238V-219H1080ZM44 809H454Q466 993 468 1273H298Q238 1103 174 969Q84 1007 22 1029Q178 1327 270 1709L426 1673Q388 1537 348 1417H958V1273H628Q626 997 616 809H998V665H604Q598 613 592 567Q846 279 1026 49L890 -53Q698 203 548 379Q434 -5 122 -267Q70 -197 10 -129Q386 175 442 665H44ZM1774 1337H1238V127H1774Z" transform="translate(12288.00000 0)" /><path d="M1136 1371H689V0H488V1371H43V1549H1136Z" transform="translate(14942.00000 0)" /><path d="M768 912Q719 947 633 947Q519 947 445.0 840.5Q371 734 371 560V0H175V1106H371V881H375Q459 1125 665 1125Q732 1125 768 1110Z" transform="translate(16116.00000 0)" /><path d="M201 1029Q366 1132 582 1132Q982 1132 982 712V0H788V171H783Q668 -26 444 -26Q283 -26 188.0 61.0Q93 148 93 296Q93 606 460 657L788 703Q788 974 564 974Q365 974 201 840ZM529 520Q393 502 341.5 452.0Q290 402 290 312Q290 233 346.0 183.0Q402 133 494 133Q622 133 705.0 223.0Q788 313 788 449V555Z" transform="translate(16898.00000 0)" /><path d="M1110 0H915V629Q915 970 666 970Q537 970 454.0 874.0Q371 778 371 631V0H175V1106H371V923H375Q500 1132 738 1132Q920 1132 1015.0 1015.5Q1110 899 1110 676Z" transform="translate(18030.00000 0)" /><path d="M113 239Q261 132 432 132Q661 132 661 282Q661 346 611.0 387.5Q561 429 408 486Q224 560 169.0 632.5Q114 705 114 808Q114 955 238.5 1043.5Q363 1132 545 1132Q686 1132 807 1083V894Q683 974 526 974Q432 974 373.0 933.0Q314 892 314 825Q314 759 356.5 722.0Q399 685 545 627Q730 558 795.0 484.0Q860 410 860 301Q860 149 735.5 61.5Q611 -26 413 -26Q241 -26 113 39Z" transform="translate(19292.00000 0)" /><path d="M742 1470Q687 1499 623 1499Q439 1499 439 1271V1106H698V944H439V0H245V944H56V1106H245V1280Q245 1458 347.5 1559.5Q450 1661 608 1661Q692 1661 742 1642Z" transform="translate(20240.00000 0)" /><path d="M101 541Q101 815 254.0 973.5Q407 1132 669 1132Q918 1132 1059.5 979.5Q1201 827 1201 558Q1201 296 1050.0 135.0Q899 -26 645 -26Q397 -26 249.0 130.0Q101 286 101 541ZM301 547Q301 356 397.5 246.0Q494 136 657 136Q825 136 913.0 243.5Q1001 351 1001 552Q1001 754 913.0 862.0Q825 970 657 970Q492 970 396.5 857.0Q301 744 301 547Z" transform="translate(20950.00000 0)" /><path d="M768 912Q719 947 633 947Q519 947 445.0 840.5Q371 734 371 560V0H175V1106H371V881H375Q459 1125 665 1125Q732 1125 768 1110Z" transform="translate(22252.00000 0)" /><path d="M1767 0H1571V635Q1571 815 1515.0 892.5Q1459 970 1331 970Q1223 970 1146.0 869.0Q1069 768 1069 630V0H873V655Q873 970 630 970Q518 970 444.5 874.0Q371 778 371 629V0H175V1106H371V931H375Q493 1132 720 1132Q831 1132 916.0 1071.0Q1001 1010 1034 906Q1157 1132 1402 1132Q1767 1132 1767 682Z" transform="translate(23034.00000 0)" /><path d="M1076 503H302Q307 326 399.0 229.5Q491 133 656 133Q842 133 997 252V77Q851 -26 610 -26Q370 -26 235.5 126.0Q101 278 101 548Q101 802 248.5 967.0Q396 1132 615 1132Q832 1132 954.0 992.5Q1076 853 1076 602ZM880 660Q879 810 809.0 892.0Q739 974 612 974Q495 974 409.5 887.0Q324 800 302 660Z" transform="translate(24953.00000 0)" /><path d="M768 912Q719 947 633 947Q519 947 445.0 840.5Q371 734 371 560V0H175V1106H371V881H375Q459 1125 665 1125Q732 1125 768 1110Z" transform="translate(26115.00000 0)" /></g>
<g aria-label="模型复现、部署与适用域分析" transform="translate(32.00000 214.00000) scale(0.01513672 -0.01513672)" fill="#485d54"><title>模型复现、部署与适用域分析</title><path d="M656 315H1235Q1248 388 1252 495H944V439H800V1163H1870V439H1726V495H1390Q1384 385 1372 315H2000V187H1448Q1665 -56 2022 -109Q1966 -183 1924 -259Q1537 -146 1321 149Q1178 -138 664 -271Q630 -201 586 -133Q1057 -34 1188 187H656ZM20 451Q193 741 295 1123H44V1255H322V1699H462V1255H722V1123H462V859L540 923Q654 801 752 677L642 585Q550 718 462 820V-263H322V826Q215 460 88 275Q60 361 20 451ZM1508 1697H1648V1505H1992V1377H1648V1215H1508V1377H1152V1215H1012V1377H696V1505H1012V1699H1152V1505H1508ZM1726 1039H944V889H1726ZM944 619H1726V769H944Z" transform="translate(0.00000 0)" /><path d="M48 1121H352Q354 1164 354 1455H132V1587H1176V1455H958V1121H1242V989H958V559H812V989H489Q464 701 204 491Q152 549 94 607Q324 785 341 989H48ZM44 -33H940V237H226V375H940V531H1096V375H1828V237H1096V-33H2002V-171H44ZM1874 1667V747Q1874 535 1664 531Q1544 527 1386 531Q1378 607 1362 689Q1530 679 1614 679Q1728 679 1728 805V1667ZM498 1121H812V1455H500Q500 1213 498 1121ZM1324 1555H1468V863H1324Z" transform="translate(2048.00000 0)" /><path d="M26 1139Q312 1363 500 1711H676Q628 1627 577 1549H1984V1421H488Q434 1347 376 1279H1784V543H1644V595H468V523H330V1225Q229 1112 118 1013Q84 1071 26 1139ZM26 93Q394 273 618 547H796Q752 491 706 439H1788V331Q1594 158 1292 22Q1605 -60 2022 -91Q1968 -181 1928 -255Q1441 -187 1093 -56Q737 -180 232 -279Q194 -213 140 -143Q636 -61 914 19Q689 127 537 268Q347 97 124 -17Q80 41 26 93ZM468 719H1644V879H468ZM1644 1155H468V997H1644ZM1558 323H648Q823 177 1097 81Q1375 189 1558 323Z" transform="translate(4096.00000 0)" /><path d="M1248 1325H1404V989Q1404 732 1360 537H1492V33Q1492 -73 1608 -73H1704Q1824 -73 1836 35Q1848 127 1856 297Q1924 269 2020 235Q2004 59 1988 -29Q1958 -213 1726 -213H1578Q1340 -213 1340 13V456Q1299 314 1232 209Q1062 -65 670 -267Q618 -193 562 -135Q952 53 1104 301Q1248 525 1248 977ZM828 1611H1850V411H1694V1463H984V383H828ZM26 123Q170 162 328 207V789H64V933H328V1397H48V1541H768V1397H484V933H740V789H484V253Q626 296 778 343Q782 267 792 193Q448 87 82 -31Z" transform="translate(6144.00000 0)" /><path d="M618 -132 498 -253Q329 -69 127 98L233 208Q482 7 618 -132Z" transform="translate(8192.00000 0)" /><path d="M2012 399Q2012 55 1742 27Q1640 15 1470 35Q1460 107 1444 211Q1590 187 1694 187Q1870 187 1854 429Q1846 643 1548 867Q1678 1125 1812 1441H1404V-265H1252V1589H1972V1425Q1894 1223 1730 901Q2012 681 2012 399ZM184 561H1048V-253H900V-105H332V-255H184ZM900 427H332V33H900ZM40 903H680Q799 1109 874 1279L1022 1203Q935 1051 837 903H1186V769H40ZM84 1431H584Q545 1521 466 1651L604 1715Q694 1565 732 1477L634 1431H1150V1297H84ZM218 1193 340 1267Q440 1125 522 983L386 905Q324 1031 218 1193Z" transform="translate(10240.00000 0)" /><path d="M52 759H804V913H246V1025H804V1143H944V1025H1416V913H944V759H1149Q1453 908 1750 1089L1840 985Q1631 866 1424 759H2004V643H1193Q1022 559 852 485H1716V-271H1576V-179H562V-271H422V308Q259 246 98 193Q72 243 18 319Q468 450 901 643H52ZM190 1629H1848V1137H1712V1177H326V1113H190ZM562 -63H1576V97H562ZM1576 369H577L562 363V209H1576ZM1712 1509H1338V1297H1712ZM326 1297H700V1509H326ZM832 1297H1206V1509H832Z" transform="translate(12288.00000 0)" /><path d="M372 763V915L452 1705H618L587 1387H2006V1235H573L542 915H1860Q1836 495 1806 133Q1778 -79 1684 -153Q1594 -225 1383 -225Q1186 -223 928 -217Q916 -149 894 -43Q1198 -65 1348 -67Q1616 -85 1640 143Q1666 409 1684 763ZM34 451H1516V299H34Z" transform="translate(14336.00000 0)" /><path d="M776 781H1224V1031H600V1175H1224V1437Q976 1422 712 1407Q702 1471 684 1549Q1372 1579 1870 1631L1900 1485Q1649 1466 1380 1448V1175H2006V1031H1380V781H1832V69H1680V161H928V69H776ZM852 -65 1422 -73 2012 -57Q1982 -139 1956 -215H1390L826 -207Q484 -203 342 27Q260 -49 102 -241L20 -75Q202 100 280 173V845H42V993H434V129Q558 -61 852 -65ZM1680 645H928V297H1680ZM274 1665Q424 1473 554 1287L412 1187Q286 1387 146 1579Z" transform="translate(16384.00000 0)" /><path d="M988 -235V401H406Q372 -15 164 -289Q112 -223 46 -151Q176 33 222 257Q266 473 266 869V1583H1896V-7Q1896 -245 1670 -245Q1532 -245 1360 -239Q1350 -173 1330 -73Q1504 -85 1612 -85Q1736 -85 1736 33V401H1148V-235ZM1148 545H1736V919H1148ZM1736 1435H1148V1063H1736ZM417 545H988V919H426Q432 725 417 545ZM426 1435V1063H988V1435Z" transform="translate(18432.00000 0)" /><path d="M1034 -167Q1261 20 1435 269Q1366 581 1350 1217H648V1357H1346Q1343 1519 1342 1705H1496Q1494 1523 1496 1357H1990V1217H1499Q1509 763 1553 454Q1696 701 1794 999L1936 939Q1783 541 1594 244Q1636 86 1700 -13Q1754 -99 1792 -99Q1828 -99 1842 -13Q1860 91 1870 299Q1956 265 2020 247Q1992 11 1972 -87Q1938 -263 1810 -265Q1712 -263 1628 -167Q1545 -75 1487 88Q1334 -119 1160 -267Q1104 -219 1034 -167ZM22 141Q153 181 280 223V1005H44V1145H280V1701H428V1145H650V1005H428V273Q533 309 636 347Q636 325 650 199Q370 97 60 -21ZM696 993H1206V371H1068V417H834V347H696ZM542 113Q904 169 1274 245Q1272 213 1282 109Q986 55 594 -27ZM1068 865H834V545H1068ZM1660 1677Q1808 1573 1898 1493L1806 1387Q1716 1473 1574 1585Z" transform="translate(20480.00000 0)" /><path d="M288 819H1618Q1608 479 1588 155Q1564 -219 1234 -217Q1072 -219 892 -207Q880 -123 864 -37Q1018 -59 1208 -61Q1408 -65 1428 173Q1444 389 1452 671H837Q813 337 698 133Q546 -135 188 -281Q136 -213 74 -147Q406 -23 552 213Q657 392 673 671H288ZM1116 1651 1260 1713Q1480 1177 2032 911Q1942 817 1902 759Q1352 1077 1116 1651ZM16 885Q428 1177 720 1681L862 1603Q558 1071 132 749Q90 811 16 885Z" transform="translate(22528.00000 0)" /><path d="M888 1535Q1382 1543 1876 1621L1930 1477Q1508 1415 1042 1395V949H2018V803H1642V-261H1488V803H1042V727Q1042 77 712 -273Q662 -201 608 -141Q888 159 888 729ZM28 445Q236 749 342 1147H56V1285H346V1683H492V1285H768V1147H492V919L566 977Q748 763 830 635L706 543Q612 691 492 851V-261H346V767Q244 467 98 267Q74 337 28 445Z" transform="translate(24576.00000 0)" /></g>
<g aria-label="打开项目" transform="translate(32.00000 271.00000) scale(0.01123047 -0.01123047)" fill="#315e4c"><title>打开项目</title><path d="M26 559Q211 618 386 677V1145H58V1297H386V1681H546V1297H844V1145H546V732Q712 789 870 847Q876 745 886 687Q714 627 546 566V-23Q546 -241 338 -241Q248 -241 108 -239Q98 -155 84 -71Q184 -85 298 -85Q386 -85 386 11V509Q227 451 72 393ZM866 1531H2020V1379H1676V25Q1676 -229 1426 -231Q1296 -233 1078 -229Q1068 -137 1046 -47Q1272 -63 1384 -63Q1508 -63 1508 77V1379H866Z" transform="translate(0.00000 0)" /><path d="M40 817H562V1399H128V1557H1922V1399H1514V817H2008V659H1514V-253H1350V659H725Q718 293 620 115Q522 -81 170 -279Q118 -207 56 -139Q362 17 464 187Q555 324 561 659H40ZM726 817H1350V1399H726Z" transform="translate(2048.00000 0)" /><path d="M830 1193H1200L1256 1443H784V1583H1990V1443H1430L1364 1193H1890V149H1734V1053H986V149H830ZM14 213Q178 249 316 283V1345H42V1489H728V1345H472V321Q638 361 756 393Q760 289 770 235Q290 115 58 51ZM1282 923H1438V613Q1438 405 1382 247Q1732 59 2008 -127L1904 -269Q1628 -63 1320 115Q1306 93 1292 73Q1130 -149 722 -295Q682 -233 622 -159Q1014 -27 1164 171Q1282 323 1282 619Z" transform="translate(4096.00000 0)" /><path d="M302 1605H1750V-247H1580V-97H472V-247H302ZM472 429V51H1580V429ZM472 943V569H1580V943ZM472 1457V1083H1580V1457Z" transform="translate(6144.00000 0)" /></g><path d="M142 263h34m-9-9 9 9-9 9" fill="none" stroke="#315e4c" stroke-width="2.5" stroke-linecap="round" stroke-linejoin="round" />
</svg>